<svg xmlns="http://www.w3.org/2000/svg" viewBox="0 0 1372 472" width="1372" height="472" role="img" aria-label="Social Feed version 7: Media at scale">
<style><![CDATA[
/* Light is the base, dark is the override -- same three-state structure as the
   app. A committed SVG is viewed on GitHub in whichever theme the reader uses,
   and a hardcoded dark diagram on a light page reads as broken. Media queries
   inside an SVG do apply when it is referenced as an image. */
.bg{fill:#f4f6f4}
.shape{fill:#eaeeec;stroke:#b8c4bf;stroke-width:1.6}
.shape.cache{stroke-dasharray:7 5}
.shape.bottleneck{stroke:#8a5a0c;stroke-width:2.2}
.lbl{fill:#16201e;font:500 12.5px system-ui,sans-serif}
.note{fill:#6d7c77;font:10px system-ui,sans-serif}
.edge{fill:none;stroke:#b8c4bf;stroke-width:1.6}
.edge.async{stroke-dasharray:6 5}
.edge.replication{stroke-dasharray:2 4;stroke-width:2.6;opacity:.8}
.elbl{fill:#6d7c77;font:10px system-ui,sans-serif}
.elbl-bg{fill:#f4f6f4}
.head{fill:#b8c4bf}
.title{fill:#16201e;font:600 14px system-ui,sans-serif}
.sub{fill:#4a5854;font:12px system-ui,sans-serif}
.tag{fill:#1c6853;font:600 11px ui-monospace,monospace}
.halo{fill:#1c6853;opacity:.2}
.core{fill:#1c6853}

@media (prefers-color-scheme: dark){
  .bg{fill:#0e1414}
  .shape{fill:#111818;stroke:#344544}
  .shape.bottleneck{stroke:#d9a441}
  .lbl{fill:#e4ecea}
  .note{fill:#6f817d}
  .edge{stroke:#344544}
  .elbl{fill:#6f817d}
  .elbl-bg{fill:#0e1414}
  .head{fill:#344544}
  .title{fill:#e4ecea}
  .sub{fill:#9fb0ac}
  .tag{fill:#4fc3a1}
  .halo{fill:#4fc3a1}
  .core{fill:#4fc3a1}
}
]]></style>
<rect class="bg" width="1372" height="472"/>
<text class="tag" x="40" y="26">V7</text>
<text class="title" x="70" y="26">Social Feed</text>
<text class="sub" x="40" y="46">Media at scale · p50 13ms · p99 65ms</text>
<g transform="translate(0 62)">
<path class="edge sync" d="M172.0,205.0 C217.5,205.0 217.5,160.0 263.0,160.0"/>
<rect class="elbl-bg" x="204.5" y="165.5" width="35.0" height="12" rx="2"/><text class="elbl" x="222.0" y="173.5" text-anchor="middle">media</text>
<path class="edge sync" d="M172.0,205.0 C217.5,205.0 217.5,250.0 263.0,250.0"/>
<rect class="elbl-bg" x="182.9" y="210.5" width="78.2" height="12" rx="2"/><text class="elbl" x="222.0" y="218.5" text-anchor="middle">timeline JSON</text>
<path class="edge sync" d="M404.0,160.0 C449.5,160.0 449.5,250.0 495.0,250.0"/>
<rect class="elbl-bg" x="431.1" y="188.0" width="45.8" height="12" rx="2"/><text class="elbl" x="454.0" y="196.0" text-anchor="middle">on miss</text>
<path class="edge sync" d="M404.0,250.0 C449.5,250.0 449.5,160.0 495.0,160.0"/>
<path class="edge sync" d="M636.0,160.0 C681.5,160.0 681.5,70.0 727.0,70.0"/>
<path class="edge sync" d="M636.0,160.0 C913.5,160.0 913.5,205.0 1191.0,205.0"/>
<path class="edge sync" d="M636.0,160.0 C681.5,160.0 681.5,250.0 727.0,250.0"/>
<path class="edge sync" d="M636.0,160.0 C681.5,160.0 681.5,160.0 727.0,160.0"/>
<path class="edge async" d="M636.0,160.0 C681.5,160.0 681.5,340.0 727.0,340.0"/>
<path class="edge async" d="M868.0,340.0 C913.5,340.0 913.5,205.0 959.0,205.0"/>
<path class="edge async" d="M1100.0,205.0 C1145.5,205.0 1145.5,205.0 1191.0,205.0"/>
<rect class="shape client" x="40" y="175.0" width="132" height="60" rx="26"/>
<text class="lbl" x="106.0" y="210.0" text-anchor="middle">Client</text>
<polygon class="shape edge" points="288,130.0 388,130.0 404,190.0 272,190.0"/>
<text class="lbl" x="338.0" y="157.0" text-anchor="middle">CDN / Edge</text>
<text class="note" x="338.0" y="174.0" text-anchor="middle">images and video</text>
<polygon class="shape lb" points="290,220.0 386,220.0 404,250.0 386,280.0 290,280.0 272,250.0"/>
<text class="lbl" x="338.0" y="255.0" text-anchor="middle">Load Balancer</text>
<rect class="shape service" x="504" y="130.0" width="132" height="60" rx="6"/>
<text class="lbl" x="570.0" y="165.0" text-anchor="middle">App Servers</text>
<rect class="shape cache" x="736" y="40.0" width="132" height="60" rx="6"/>
<text class="lbl" x="802.0" y="67.0" text-anchor="middle">Cache</text>
<text class="note" x="802.0" y="84.0" text-anchor="middle">hot timelines</text>
<path class="shape store" d="M736,139.0 a66.0,9 0 0 1 132,0 v42 a66.0,9 0 0 1 -132,0 z"/><path class="shape store" fill="none" d="M736,139.0 a66.0,9 0 0 0 132,0"/>
<text class="lbl" x="802.0" y="165.0" text-anchor="middle">Follow Graph</text>
<path class="shape store" d="M736,229.0 a66.0,9 0 0 1 132,0 v42 a66.0,9 0 0 1 -132,0 z"/><path class="shape store" fill="none" d="M736,229.0 a66.0,9 0 0 0 132,0"/>
<text class="lbl" x="802.0" y="255.0" text-anchor="middle">Post Store</text>
<path class="shape store" d="M1200,184.0 a66.0,9 0 0 1 132,0 v42 a66.0,9 0 0 1 -132,0 z"/><path class="shape store" fill="none" d="M1200,184.0 a66.0,9 0 0 0 132,0"/>
<text class="lbl" x="1266.0" y="202.0" text-anchor="middle">Feed Store</text>
<text class="note" x="1266.0" y="219.0" text-anchor="middle">precomputed timelines</text>
<rect class="shape queue" x="736" y="310.0" width="132" height="60" rx="4"/><line class="shape queue" x1="780.0" y1="318.0" x2="780.0" y2="362.0" opacity="0.35"/><line class="shape queue" x1="824.0" y1="318.0" x2="824.0" y2="362.0" opacity="0.35"/>
<text class="lbl" x="802.0" y="345.0" text-anchor="middle">Fan-out Queue</text>
<rect class="shape service" x="968" y="175.0" width="132" height="60" rx="6"/>
<text class="lbl" x="1034.0" y="210.0" text-anchor="middle">Fan-out Workers</text>
<path class="shape store" d="M504,229.0 a66.0,9 0 0 1 132,0 v42 a66.0,9 0 0 1 -132,0 z"/><path class="shape store" fill="none" d="M504,229.0 a66.0,9 0 0 0 132,0"/>
<text class="lbl" x="570.0" y="247.0" text-anchor="middle">Object Storage</text>
<text class="note" x="570.0" y="264.0" text-anchor="middle">media bytes</text>
<g><circle class="halo" r="11"/><circle class="core" r="5.5"/><animateMotion dur="5.57s" repeatCount="indefinite" path="M106.0,205.0 L338.0,250.0 L570.0,160.0 L802.0,250.0 L570.0,160.0 L106.0,205.0"/></g>
</g></svg>
