<svg xmlns="http://www.w3.org/2000/svg" viewBox="0 0 2214 382" width="2214" height="382" role="img" aria-label="Ticket Booking version 6: Payment in the loop">
<style><![CDATA[
/* Light is the base, dark is the override -- same three-state structure as the
   app. A committed SVG is viewed on GitHub in whichever theme the reader uses,
   and a hardcoded dark diagram on a light page reads as broken. Media queries
   inside an SVG do apply when it is referenced as an image. */
.bg{fill:#f4f6f4}
.shape{fill:#eaeeec;stroke:#b8c4bf;stroke-width:1.6}
.shape.cache{stroke-dasharray:7 5}
.shape.bottleneck{stroke:#8a5a0c;stroke-width:2.2}
.lbl{fill:#16201e;font:500 12.5px system-ui,sans-serif}
.note{fill:#6d7c77;font:10px system-ui,sans-serif}
.edge{fill:none;stroke:#b8c4bf;stroke-width:1.6}
.edge.async{stroke-dasharray:6 5}
.edge.replication{stroke-dasharray:2 4;stroke-width:2.6;opacity:.8}
.elbl{fill:#6d7c77;font:10px system-ui,sans-serif}
.elbl-bg{fill:#f4f6f4}
.head{fill:#b8c4bf}
.title{fill:#16201e;font:600 14px system-ui,sans-serif}
.sub{fill:#4a5854;font:12px system-ui,sans-serif}
.tag{fill:#1c6853;font:600 11px ui-monospace,monospace}
.halo{fill:#1c6853;opacity:.2}
.core{fill:#1c6853}

@media (prefers-color-scheme: dark){
  .bg{fill:#0e1414}
  .shape{fill:#111818;stroke:#344544}
  .shape.bottleneck{stroke:#d9a441}
  .lbl{fill:#e4ecea}
  .note{fill:#6f817d}
  .edge{stroke:#344544}
  .elbl{fill:#6f817d}
  .elbl-bg{fill:#0e1414}
  .head{fill:#344544}
  .title{fill:#e4ecea}
  .sub{fill:#9fb0ac}
  .tag{fill:#4fc3a1}
  .halo{fill:#4fc3a1}
  .core{fill:#4fc3a1}
}
]]></style>
<rect class="bg" width="2214" height="382"/>
<text class="tag" x="40" y="26">V6</text>
<text class="title" x="70" y="26">Ticket Booking</text>
<text class="sub" x="40" y="46">Payment in the loop · p50 18ms · p99 160ms</text>
<g transform="translate(0 62)">
<path class="edge sync" d="M172.0,115.0 C244.5,115.0 244.5,160.0 317.0,160.0"/>
<rect class="elbl-bg" x="231.5" y="120.5" width="35.0" height="12" rx="2"/><text class="elbl" x="249.0" y="128.5" text-anchor="middle">HTTPS</text>
<path class="edge sync" d="M458.0,160.0 C530.5,160.0 530.5,160.0 603.0,160.0"/>
<path class="edge sync" d="M744.0,160.0 C816.5,160.0 816.5,160.0 889.0,160.0"/>
<path class="edge sync" d="M1030.0,160.0 C1102.5,160.0 1102.5,160.0 1175.0,160.0"/>
<path class="edge sync" d="M1316.0,160.0 C1388.5,160.0 1388.5,70.0 1461.0,70.0"/>
<path class="edge sync" d="M1316.0,160.0 C1388.5,160.0 1388.5,160.0 1461.0,160.0"/>
<rect class="elbl-bg" x="1375.5" y="143.0" width="35.0" height="12" rx="2"/><text class="elbl" x="1393.0" y="151.0" text-anchor="middle">lease</text>
<path class="edge async" d="M1316.0,160.0 C1388.5,160.0 1388.5,250.0 1461.0,250.0"/>
<rect class="elbl-bg" x="1356.6" y="188.0" width="72.8" height="12" rx="2"/><text class="elbl" x="1393.0" y="196.0" text-anchor="middle">order placed</text>
<path class="edge async" d="M1602.0,250.0 C1674.5,250.0 1674.5,160.0 1747.0,160.0"/>
<path class="edge sync" d="M1888.0,160.0 C1960.5,160.0 1960.5,205.0 2033.0,205.0"/>
<rect class="elbl-bg" x="1898.9" y="165.5" width="132.2" height="12" rx="2"/><text class="elbl" x="1965.0" y="173.5" text-anchor="middle">charge, idempotency key</text>
<path class="edge sync" d="M1888.0,160.0 C1960.5,160.0 1960.5,115.0 2033.0,115.0"/>
<rect class="elbl-bg" x="1912.4" y="120.5" width="105.2" height="12" rx="2"/><text class="elbl" x="1965.0" y="128.5" text-anchor="middle">confirm on success</text>
<path class="edge async" d="M172.0,205.0 C816.5,205.0 816.5,160.0 1461.0,160.0"/>
<path class="edge async" d="M172.0,205.0 C1102.5,205.0 1102.5,115.0 2033.0,115.0"/>
<rect class="shape client" x="40" y="85.0" width="132" height="60" rx="26"/>
<text class="lbl" x="106.0" y="120.0" text-anchor="middle">Client</text>
<polygon class="shape edge" points="342,130.0 442,130.0 458,190.0 326,190.0"/>
<text class="lbl" x="392.0" y="157.0" text-anchor="middle">CDN / Edge</text>
<text class="note" x="392.0" y="174.0" text-anchor="middle">event pages, seat maps</text>
<rect class="shape queue" x="612" y="130.0" width="132" height="60" rx="4"/><line class="shape queue" x1="656.0" y1="138.0" x2="656.0" y2="182.0" opacity="0.35"/><line class="shape queue" x1="700.0" y1="138.0" x2="700.0" y2="182.0" opacity="0.35"/>
<text class="lbl" x="678.0" y="157.0" text-anchor="middle">Waiting Room</text>
<text class="note" x="678.0" y="174.0" text-anchor="middle">admits N per second</text>
<polygon class="shape lb" points="916,130.0 1012,130.0 1030,160.0 1012,190.0 916,190.0 898,160.0"/>
<text class="lbl" x="964.0" y="165.0" text-anchor="middle">Load Balancer</text>
<rect class="shape service" x="1184" y="130.0" width="132" height="60" rx="6"/>
<text class="lbl" x="1250.0" y="165.0" text-anchor="middle">App Servers</text>
<rect class="shape cache" x="1470" y="40.0" width="132" height="60" rx="6"/>
<text class="lbl" x="1536.0" y="67.0" text-anchor="middle">Cache</text>
<text class="note" x="1536.0" y="84.0" text-anchor="middle">seat map, read-only</text>
<path class="shape store" d="M1470,139.0 a66.0,9 0 0 1 132,0 v42 a66.0,9 0 0 1 -132,0 z"/><path class="shape store" fill="none" d="M1470,139.0 a66.0,9 0 0 0 132,0"/>
<text class="lbl" x="1536.0" y="157.0" text-anchor="middle">Hold Store</text>
<text class="note" x="1536.0" y="174.0" text-anchor="middle">seat leases, TTL 10 min</text>
<path class="shape store" d="M2042,94.0 a66.0,9 0 0 1 132,0 v42 a66.0,9 0 0 1 -132,0 z"/><path class="shape store" fill="none" d="M2042,94.0 a66.0,9 0 0 0 132,0"/>
<text class="lbl" x="2108.0" y="112.0" text-anchor="middle">Seat Inventory</text>
<text class="note" x="2108.0" y="129.0" text-anchor="middle">the source of truth</text>
<rect class="shape queue" x="1470" y="220.0" width="132" height="60" rx="4"/><line class="shape queue" x1="1514.0" y1="228.0" x2="1514.0" y2="272.0" opacity="0.35"/><line class="shape queue" x1="1558.0" y1="228.0" x2="1558.0" y2="272.0" opacity="0.35"/>
<text class="lbl" x="1536.0" y="255.0" text-anchor="middle">Order Queue</text>
<rect class="shape service" x="1756" y="130.0" width="132" height="60" rx="6"/>
<text class="lbl" x="1822.0" y="165.0" text-anchor="middle">Order Workers</text>
<rect class="shape external" x="2042" y="175.0" width="132" height="60" rx="6"/>
<text class="lbl" x="2108.0" y="202.0" text-anchor="middle">Payment Provider</text>
<text class="note" x="2108.0" y="219.0" text-anchor="middle">you do not control this</text>
<rect class="shape service" x="40" y="175.0" width="132" height="60" rx="6"/>
<text class="lbl" x="106.0" y="202.0" text-anchor="middle">Expiry Sweeper</text>
<text class="note" x="106.0" y="219.0" text-anchor="middle">releases dead holds</text>
<g><circle class="halo" r="11"/><circle class="core" r="5.5"/><animateMotion dur="12.26s" repeatCount="indefinite" path="M106.0,115.0 L392.0,160.0 L678.0,160.0 L964.0,160.0 L1250.0,160.0 L1536.0,160.0 L1250.0,160.0 L1536.0,250.0 L1822.0,160.0 L2108.0,205.0 L1822.0,160.0 L2108.0,115.0"/></g>
</g></svg>
