<svg xmlns="http://www.w3.org/2000/svg" viewBox="0 0 890 382" width="890" height="382" role="img" aria-label="URL Shortener version 4: 200M req/day">
<style><![CDATA[
/* Light is the base, dark is the override -- same three-state structure as the
   app. A committed SVG is viewed on GitHub in whichever theme the reader uses,
   and a hardcoded dark diagram on a light page reads as broken. Media queries
   inside an SVG do apply when it is referenced as an image. */
.bg{fill:#f4f6f4}
.shape{fill:#eaeeec;stroke:#b8c4bf;stroke-width:1.6}
.shape.cache{stroke-dasharray:7 5}
.shape.bottleneck{stroke:#8a5a0c;stroke-width:2.2}
.lbl{fill:#16201e;font:500 12.5px system-ui,sans-serif}
.note{fill:#6d7c77;font:10px system-ui,sans-serif}
.edge{fill:none;stroke:#b8c4bf;stroke-width:1.6}
.edge.async{stroke-dasharray:6 5}
.edge.replication{stroke-dasharray:2 4;stroke-width:2.6;opacity:.8}
.elbl{fill:#6d7c77;font:10px system-ui,sans-serif}
.elbl-bg{fill:#f4f6f4}
.head{fill:#b8c4bf}
.title{fill:#16201e;font:600 14px system-ui,sans-serif}
.sub{fill:#4a5854;font:12px system-ui,sans-serif}
.tag{fill:#1c6853;font:600 11px ui-monospace,monospace}
.halo{fill:#1c6853;opacity:.2}
.core{fill:#1c6853}

@media (prefers-color-scheme: dark){
  .bg{fill:#0e1414}
  .shape{fill:#111818;stroke:#344544}
  .shape.bottleneck{stroke:#d9a441}
  .lbl{fill:#e4ecea}
  .note{fill:#6f817d}
  .edge{stroke:#344544}
  .elbl{fill:#6f817d}
  .elbl-bg{fill:#0e1414}
  .head{fill:#344544}
  .title{fill:#e4ecea}
  .sub{fill:#9fb0ac}
  .tag{fill:#4fc3a1}
  .halo{fill:#4fc3a1}
  .core{fill:#4fc3a1}
}
]]></style>
<rect class="bg" width="890" height="382"/>
<text class="tag" x="40" y="26">V4</text>
<text class="title" x="70" y="26">URL Shortener</text>
<text class="sub" x="40" y="46">200M req/day · p50 6ms · p99 55ms</text>
<g transform="translate(0 62)">
<path class="edge sync" d="M172.0,160.0 C214.5,160.0 214.5,160.0 257.0,160.0"/>
<rect class="elbl-bg" x="201.5" y="143.0" width="35.0" height="12" rx="2"/><text class="elbl" x="219.0" y="151.0" text-anchor="middle">HTTPS</text>
<path class="edge sync" d="M398.0,160.0 C440.5,160.0 440.5,160.0 483.0,160.0"/>
<path class="edge sync" d="M624.0,160.0 C666.5,160.0 666.5,70.0 709.0,70.0"/>
<rect class="elbl-bg" x="634.6" y="98.0" width="72.8" height="12" rx="2"/><text class="elbl" x="671.0" y="106.0" text-anchor="middle">read-through</text>
<path class="edge sync" d="M624.0,160.0 C666.5,160.0 666.5,250.0 709.0,250.0"/>
<rect class="elbl-bg" x="648.1" y="188.0" width="45.8" height="12" rx="2"/><text class="elbl" x="671.0" y="196.0" text-anchor="middle">on miss</text>
<path class="edge sync" d="M624.0,160.0 C666.5,160.0 666.5,160.0 709.0,160.0"/>
<rect class="elbl-bg" x="650.8" y="143.0" width="40.4" height="12" rx="2"/><text class="elbl" x="671.0" y="151.0" text-anchor="middle">writes</text>
<path class="edge replication" d="M842.0,160.0 C838.0,160.0 838.0,250.0 842.0,250.0"/>
<rect class="shape client" x="40" y="130.0" width="132" height="60" rx="26"/>
<text class="lbl" x="106.0" y="165.0" text-anchor="middle">Client</text>
<polygon class="shape lb" points="284,130.0 380,130.0 398,160.0 380,190.0 284,190.0 266,160.0"/>
<text class="lbl" x="332.0" y="165.0" text-anchor="middle">Load Balancer</text>
<rect class="shape service" x="492" y="130.0" width="132" height="60" rx="6"/>
<text class="lbl" x="558.0" y="165.0" text-anchor="middle">App Servers</text>
<rect class="shape cache" x="718" y="40.0" width="132" height="60" rx="6"/>
<text class="lbl" x="784.0" y="67.0" text-anchor="middle">Cache</text>
<text class="note" x="784.0" y="84.0" text-anchor="middle">read-through, TTL 1h</text>
<path class="shape store" d="M718,139.0 a66.0,9 0 0 1 132,0 v42 a66.0,9 0 0 1 -132,0 z"/><path class="shape store" fill="none" d="M718,139.0 a66.0,9 0 0 0 132,0"/>
<text class="lbl" x="784.0" y="157.0" text-anchor="middle">Database</text>
<text class="note" x="784.0" y="174.0" text-anchor="middle">primary</text>
<path class="shape store" d="M718,229.0 a66.0,9 0 0 1 132,0 v42 a66.0,9 0 0 1 -132,0 z"/><path class="shape store" fill="none" d="M718,229.0 a66.0,9 0 0 0 132,0"/>
<text class="lbl" x="784.0" y="255.0" text-anchor="middle">Read Replicas</text>
<g><circle class="halo" r="11"/><circle class="core" r="5.5"/><animateMotion dur="7.22s" repeatCount="indefinite" path="M106.0,160.0 L332.0,160.0 L558.0,160.0 L784.0,70.0 L558.0,160.0 L784.0,250.0 L558.0,160.0 L106.0,160.0"/></g>
</g></svg>
